<svg width="32" height="32" viewBox="0 0 32 32" xmlns="http://www.w3.org/2000/svg">
  <style>
    .leaf { fill: #1f3d2e; }
    .accent { fill: #c78f4b; }
  </style>
  <rect width="32" height="32" rx="4" fill="#f2e8d5"/>
  <path class="leaf" d="M16 4c-6.6 0-12 5.4-12 12s5.4 12 12 12 12-5.4 12-12-5.4-12-12-12zm0 22c-5.5 0-10-4.5-10-10s4.5-10 10-10 10 4.5 10 10-4.5 10-10 10z"/>
  <path class="leaf" d="M16 8c-4.4 0-8 3.6-8 8s3.6 8 8 8 8-3.6 8-8-3.6-8-8-8zm0 14c-3.3 0-6-2.7-6-6s2.7-6 6-6 6 2.7 6 6-2.7 6-6 6z"/>
  <path class="accent" d="M16 12v8M12 16h8" stroke-width="2" stroke="#c78f4b" fill="none"/>
</svg> 