<?xml version="1.0" standalone="no"?>
<!DOCTYPE svg PUBLIC "-//W3C//DTD SVG 20010904//EN"
 "http://www.w3.org/TR/2001/REC-SVG-20010904/DTD/svg10.dtd">
<svg version="1.0" xmlns="http://www.w3.org/2000/svg"
 width="120.000000pt" height="150.000000pt" viewBox="0 0 120.000000 150.000000"
 preserveAspectRatio="xMidYMid meet">

<g transform="translate(0.000000,150.000000) scale(0.100000,-0.100000)"
fill="#000000" stroke="none">
<path d="M753 1159 c-19 -19 -16 -36 16 -82 42 -62 54 -110 49 -189 -10 -140
-123 -291 -277 -372 -40 -21 -71 -32 -68 -25 19 47 29 90 24 103 -9 23 -37 20
-37 -5 0 -11 -27 -63 -61 -115 -48 -74 -60 -100 -55 -119 4 -15 14 -25 24 -25
42 0 308 42 315 49 5 5 7 19 5 32 -3 27 -9 27 -118 15 l-65 -7 60 33 c76 42
182 146 223 220 45 78 76 206 68 279 -11 107 -75 236 -103 208z"/>
</g>
</svg>
