<?xml version="1.0" standalone="no"?>
<!DOCTYPE svg PUBLIC "-//W3C//DTD SVG 20010904//EN"
 "http://www.w3.org/TR/2001/REC-SVG-20010904/DTD/svg10.dtd">
<svg version="1.0" xmlns="http://www.w3.org/2000/svg"
 width="700.000000pt" height="700.000000pt" viewBox="0 0 700.000000 700.000000"
 preserveAspectRatio="xMidYMid meet">

<g transform="translate(0.000000,700.000000) scale(0.100000,-0.100000)"
fill="#000000" stroke="none">
<path d="M3821 6036 c-13 -14 -23 -35 -23 -48 4 -174 8 -155 -67 -375 -46
-137 -75 -238 -81 -291 -25 -200 53 -380 230 -530 44 -37 80 -72 80 -78 0 -13
-39 -144 -46 -156 -3 -4 -32 13 -66 37 -36 27 -87 53 -127 65 -66 20 -66 21
-100 86 -46 89 -114 154 -207 200 -66 33 -87 38 -163 42 -98 5 -172 -11 -253
-55 -45 -25 -143 -117 -164 -155 -9 -17 -12 -17 -60 1 -113 43 -257 33 -367
-26 -68 -36 -158 -128 -188 -191 -24 -50 -25 -51 -79 -56 -102 -12 -160 -27
-232 -63 -139 -70 -254 -218 -281 -363 l-11 -58 -79 -4 c-68 -3 -81 -6 -98
-27 -11 -14 -19 -39 -19 -62 0 -99 301 -3111 316 -3156 21 -67 76 -138 132
-174 98 -62 39 -60 1278 -57 l1129 3 47 22 c90 42 173 138 197 228 15 61 314
3142 307 3170 -9 36 -54 55 -131 55 l-65 0 0 73 c0 235 -153 420 -379 459 -38
6 -68 15 -65 20 3 4 24 21 48 37 l43 30 44 -30 c77 -52 179 -100 257 -120 211
-54 378 3 650 224 102 82 197 136 256 144 63 8 96 38 96 87 0 29 -8 42 -52 81
-79 71 -198 139 -306 175 -84 29 -114 34 -227 38 -169 6 -255 -11 -390 -77
-148 -73 -284 -196 -361 -326 -14 -24 -32 -46 -40 -49 -17 -6 -15 -2 26 59
159 235 184 555 64 806 -68 142 -193 283 -327 370 -71 46 -113 50 -146 15z
m278 -372 c29 -43 59 -105 77 -160 25 -77 29 -104 29 -199 -1 -108 -26 -235
-46 -235 -5 0 -9 21 -9 48 -1 124 -51 354 -86 389 -30 30 -74 30 -108 -2 -32
-30 -32 -34 0 -170 19 -85 26 -147 30 -270 l5 -160 -59 61 c-33 34 -72 88 -88
120 -27 55 -29 67 -28 174 0 112 2 118 48 245 27 72 60 171 75 222 l26 92 43
-42 c24 -23 65 -74 91 -113z m1003 -598 c60 -13 218 -78 218 -90 0 -2 -24 -18
-52 -35 -29 -17 -104 -70 -167 -119 -208 -164 -303 -204 -437 -185 -81 12
-234 77 -218 93 15 15 186 68 254 79 36 6 110 13 165 16 136 8 144 11 159 46
31 74 -6 113 -113 117 -67 3 -250 -16 -321 -34 -20 -5 -18 -1 13 21 47 33 134
72 201 90 67 18 214 18 298 1z m-1795 -251 c99 -30 165 -100 199 -214 17 -60
39 -76 111 -84 90 -10 166 -60 219 -143 52 -81 86 -92 145 -49 104 76 220 91
321 42 117 -57 187 -190 164 -311 l-7 -36 -1340 0 -1341 0 7 33 c12 55 66 145
112 188 25 22 70 53 101 67 51 24 69 27 174 27 81 1 121 5 132 14 9 7 23 36
31 64 42 141 147 227 278 227 68 0 112 -13 170 -50 27 -17 61 -30 79 -30 34 0
78 33 78 58 0 29 54 112 93 144 79 62 177 82 274 53z m-63 -1373 c27 -15 62
-43 77 -62 15 -19 127 -204 249 -410 123 -206 227 -379 233 -385 6 -7 11 -6
14 3 10 26 47 52 75 52 40 0 78 -40 78 -82 0 -18 -9 -84 -19 -147 -16 -100
-22 -118 -45 -138 -15 -13 -36 -23 -46 -23 -41 0 -255 82 -277 106 -44 49 -19
117 47 131 17 3 30 8 30 10 0 13 -455 771 -475 791 -22 23 -62 31 -101 18 -13
-4 -58 -70 -124 -179 -56 -94 -110 -178 -118 -184 -9 -7 -33 -13 -53 -13 -29
0 -42 6 -58 26 -12 15 -21 36 -21 47 0 26 184 340 228 389 49 54 104 77 187
77 58 0 79 -4 119 -27z m-534 -612 c11 -11 22 -30 24 -42 13 -60 36 -219 36
-245 0 -72 -96 -102 -142 -43 l-24 30 -159 -267 c-345 -580 -331 -549 -276
-604 l29 -29 227 0 227 0 29 -29 c16 -16 29 -37 29 -46 0 -24 -27 -72 -45 -79
-9 -3 -123 -6 -253 -6 -227 0 -239 1 -287 24 -56 25 -107 78 -130 133 -19 44
-19 143 -2 186 8 18 114 200 236 405 122 205 224 379 227 387 5 11 -2 15 -25
15 -18 0 -40 9 -51 20 -23 23 -27 77 -7 105 18 24 231 104 280 104 24 1 44 -6
57 -19z m1328 -665 c22 -16 180 -275 215 -353 40 -93 5 -225 -78 -288 -69 -53
-74 -53 -577 -54 l-467 0 15 -35 c12 -30 12 -40 2 -63 -17 -34 -58 -57 -89
-49 -13 3 -72 47 -131 97 -91 77 -108 96 -108 120 0 16 3 36 6 45 9 21 221
195 239 195 31 0 65 -21 80 -49 14 -27 14 -35 1 -66 l-15 -35 457 0 c418 0
459 2 478 18 26 20 44 54 44 80 0 10 -43 92 -97 181 -107 181 -115 208 -69
248 31 27 62 29 94 8z"/>
</g>
</svg>
