<?xml version="1.0" standalone="no"?>
<!DOCTYPE svg PUBLIC "-//W3C//DTD SVG 20010904//EN"
 "http://www.w3.org/TR/2001/REC-SVG-20010904/DTD/svg10.dtd">
<svg version="1.0" xmlns="http://www.w3.org/2000/svg"
 width="700.000000pt" height="700.000000pt" viewBox="0 0 700.000000 700.000000"
 preserveAspectRatio="xMidYMid meet">

<g transform="translate(0.000000,700.000000) scale(0.100000,-0.100000)"
fill="#000000" stroke="none">
<path d="M1803 5815 c-104 -28 -176 -90 -227 -195 l-31 -65 -3 -2012 -2 -2012
61 32 62 32 1714 3 1713 2 0 2115 0 2115 -1617 -1 c-1359 0 -1626 -3 -1670
-14z m1540 -484 c51 -20 315 -350 470 -588 389 -597 472 -1127 248 -1584 -112
-228 -320 -453 -603 -653 l-68 -48 0 -171 c0 -162 -1 -172 -22 -194 -27 -28
-67 -30 -96 -3 -21 20 -22 29 -22 195 l0 173 -82 58 c-399 278 -621 583 -695
953 -25 126 -22 344 6 481 64 306 223 637 463 966 185 253 319 404 375 423 1
1 13 -3 26 -8z"/>
<path d="M3162 4970 c-78 -99 -302 -424 -302 -438 0 -12 379 -386 385 -381 3
3 4 212 3 465 l-3 459 -83 -105z"/>
<path d="M3390 4608 l0 -463 194 194 194 194 -50 81 c-81 130 -320 456 -334
456 -2 0 -4 -208 -4 -462z"/>
<path d="M2737 4288 c-46 -106 -97 -256 -97 -286 0 -9 137 -154 305 -322 l305
-305 0 280 0 280 -228 228 c-125 125 -230 227 -234 227 -3 0 -26 -46 -51 -102z"/>
<path d="M3617 4162 l-227 -227 0 -280 0 -280 305 305 c168 168 305 310 305
317 0 42 -133 393 -149 393 -3 0 -109 -102 -234 -228z"/>
<path d="M2603 3660 c6 -177 24 -262 86 -402 61 -137 141 -249 275 -384 105
-105 259 -234 279 -234 4 0 7 118 7 263 l0 262 -326 325 -326 325 5 -155z"/>
<path d="M3713 3488 l-323 -323 0 -263 c0 -144 3 -262 7 -262 15 0 163 120
241 194 182 174 293 344 355 541 34 108 49 220 45 338 l-3 97 -322 -322z"/>
<path d="M5240 3526 c0 -1968 0 -2014 -19 -2037 l-19 -24 -1754 -5 c-1948 -6
-1776 1 -1844 -72 -41 -43 -58 -91 -58 -153 2 -87 49 -155 134 -194 42 -19 65
-21 313 -21 l267 0 0 75 0 75 -143 0 c-130 0 -145 2 -165 20 -28 26 -29 73 -2
100 20 20 33 20 1634 20 l1615 0 20 -26 c26 -33 26 -55 2 -85 l-19 -24 -1149
-5 -1148 -5 -3 -72 -3 -73 1281 0 1280 0 -2 2258 -3 2257 -107 3 -108 3 0
-2015z"/>
<path d="M2404 1157 c-2 -7 -3 -97 -2 -199 l3 -187 75 44 c41 24 86 44 100 44
23 1 63 -19 148 -71 l32 -20 0 201 0 201 -175 0 c-134 0 -177 -3 -181 -13z"/>
</g>
</svg>
