<svg xmlns="http://www.w3.org/2000/svg" data-name="Layer 1" viewBox="-5.0 -10.0 110.0 135.0" x="0px" y="0px"><defs><style>.cls-1{fill-rule:evenodd;}</style></defs><title>a</title><path class="cls-1" d="M45.79,51.72,35.055,40.984a19.137,19.137,0,0,0-.071,3.417q.526,7.464,7.239,13.477a36.215,36.215,0,0,0,3.567,2.8V51.72ZM58.92,40.984,48.185,51.72v8.953a36.215,36.215,0,0,0,3.567-2.8q6.712-6.012,7.239-13.477a19.137,19.137,0,0,0-.071-3.417ZM48.185,35.54l6.463-6.463q-.417-.722-.873-1.453A68.31,68.31,0,0,0,48.185,20V35.54Zm-8.858-6.463L45.79,35.54V20a68.31,68.31,0,0,0-5.59,7.622q-.456.732-.873,1.453Zm6.463,9.85v9.405L35.56,38.1a31.61,31.61,0,0,1,2.577-6.827l7.653,7.652Zm10.048-7.652A31.61,31.61,0,0,1,58.415,38.1l-10.23,10.23V38.927l7.653-7.652Zm1.308-2.639a1.257,1.257,0,0,1,.074.134q4.672,8.494,4.157,15.8-.594,8.422-8.034,15.087a40.6,40.6,0,0,1-5.158,3.89v5.345a1.2,1.2,0,1,1-2.4,0V63.546a40.6,40.6,0,0,1-5.158-3.89q-7.44-6.664-8.034-15.087-.516-7.305,4.157-15.8a1.153,1.153,0,0,1,.074-.133q.626-1.128,1.341-2.276a75.879,75.879,0,0,1,7.856-10.278,1.2,1.2,0,0,1,1.923,0,75.879,75.879,0,0,1,7.856,10.278q.717,1.148,1.341,2.275ZM17.39,83.887ZM76.585,77.8H21.077a6.042,6.042,0,0,0-3.687,1.252V13.187A5.813,5.813,0,0,1,23.181,7.4h53.4V77.8Zm-44.86,7.289v6.641L34.033,90.4a1.2,1.2,0,0,1,1.262-.04l2.373,1.37V85.093Zm8.338,4.877V93.8a1.2,1.2,0,0,1-1.891.977l-.564-.326v0l-2.913-1.681-3.572,2.062A1.192,1.192,0,0,1,29.335,93.8H29.33V89.97H21.077a6.1,6.1,0,0,1-6.083-6.083v-70.7A8.208,8.208,0,0,1,23.181,5h54.6a1.2,1.2,0,0,1,1.2,1.2V9.885h4.827a1.2,1.2,0,0,1,1.2,1.2V88.772a1.2,1.2,0,0,1-1.2,1.2H40.063Zm0-4.877h37.72a1.2,1.2,0,0,0,0-2.4h-52.8a1.2,1.2,0,0,0,0,2.4H29.33v2.481H21.077a3.7,3.7,0,0,1-3.687-3.687v-.008a3.7,3.7,0,0,1,3.687-3.68H77.783a1.2,1.2,0,0,0,1.2-1.2V12.281H82.61V87.574H40.063Z"/><text x="0.0" y="117.5" font-size="5.0" font-weight="bold" font-family="Arbeit Regular, Helvetica, Arial-Unicode, Arial, Sans-serif" fill="#000000">Created by Icon Designer</text><text x="0.0" y="122.5" font-size="5.0" font-weight="bold" font-family="Arbeit Regular, Helvetica, Arial-Unicode, Arial, Sans-serif" fill="#000000">from Noun Project</text></svg>