<?xml version="1.0" standalone="no"?>
<!DOCTYPE svg PUBLIC "-//W3C//DTD SVG 20010904//EN"
 "http://www.w3.org/TR/2001/REC-SVG-20010904/DTD/svg10.dtd">
<svg version="1.0" xmlns="http://www.w3.org/2000/svg"
 width="700.000000pt" height="700.000000pt" viewBox="0 0 700.000000 700.000000"
 preserveAspectRatio="xMidYMid meet">

<g transform="translate(0.000000,700.000000) scale(0.100000,-0.100000)"
fill="#000000" stroke="none">
<path d="M1089 5521 c-85 -54 -79 57 -79 -1395 l0 -1283 -60 -6 c-73 -6 -118
-33 -148 -85 -22 -39 -22 -44 -22 -486 0 -489 -1 -478 60 -529 17 -15 47 -31
68 -37 22 -6 174 -10 378 -10 l341 0 6 -68 c19 -232 190 -450 415 -528 359
-125 739 78 833 444 10 41 19 92 19 114 l0 38 580 0 580 0 0 -43 c0 -57 30
-169 64 -238 80 -163 243 -293 419 -334 82 -19 233 -19 311 1 250 65 449 294
472 545 l7 68 286 3 c265 3 290 5 344 25 107 40 187 120 233 230 l24 58 0 721
0 721 -39 59 c-83 126 -628 848 -654 868 -28 21 -39 21 -571 24 l-542 2 -34
-22 c-46 -32 -71 -68 -81 -119 -4 -24 -8 -353 -9 -731 l0 -688 -115 0 -115 0
0 1290 c0 1426 4 1333 -66 1386 l-37 29 -1412 3 -1411 2 -45 -29z m2631 -1496
l0 -1185 -1185 0 -1185 0 0 1185 0 1185 1185 0 1185 0 0 -1185z m1894 -322
l266 -358 0 -62 0 -63 -620 0 -620 0 0 420 0 420 354 0 355 0 265 -357z m266
-947 l0 -124 -172 -4 c-187 -4 -212 -11 -262 -65 -68 -73 -44 -202 48 -254 38
-22 56 -24 214 -27 l172 -4 0 -107 c0 -70 -4 -111 -12 -119 -9 -9 -95 -12
-327 -12 l-316 1 -44 54 c-110 138 -283 222 -468 227 l-73 2 0 278 0 278 620
0 620 0 0 -124z m-1590 -412 l0 -156 -60 -65 c-33 -36 -60 -70 -60 -74 0 -5
-310 -9 -689 -9 l-688 0 -29 42 c-95 136 -306 240 -490 239 -146 0 -260 -33
-372 -110 -57 -38 -162 -143 -162 -162 0 -5 -128 -9 -310 -9 l-310 0 0 230 0
230 1585 0 1585 0 0 -156z m-1892 -395 c230 -114 209 -447 -33 -538 -140 -53
-298 9 -368 144 -25 50 -35 167 -17 221 27 84 104 163 185 192 17 6 62 11 101
11 60 1 80 -4 132 -30z m2430 0 c99 -49 152 -128 160 -240 7 -97 -17 -159 -87
-229 -85 -84 -183 -109 -299 -75 -73 22 -154 99 -181 171 -57 150 2 304 141
373 51 26 73 31 133 31 60 0 82 -5 133 -31z"/>
<path d="M2436 5101 c-119 -39 -191 -109 -275 -262 -47 -88 -53 -137 -21 -200
48 -93 176 -117 254 -48 19 16 49 55 66 87 41 73 68 102 95 102 29 0 43 -17
108 -130 l55 -95 -39 -7 c-81 -15 -137 -73 -146 -152 -7 -57 25 -127 70 -155
44 -27 423 -131 479 -131 30 0 56 7 79 23 62 42 74 71 118 300 45 233 48 274
27 315 -57 109 -193 130 -276 43 l-36 -37 -59 104 c-101 177 -205 250 -365
258 -55 3 -90 -1 -134 -15z"/>
<path d="M1895 4414 c-320 -94 -341 -102 -374 -139 -95 -109 -38 -257 109
-283 l38 -7 -59 -100 c-99 -167 -119 -269 -79 -399 48 -154 175 -255 352 -277
207 -27 315 24 326 155 5 66 -20 118 -75 156 -32 22 -49 25 -142 28 -163 6
-171 21 -85 171 l57 99 33 -33 c90 -91 228 -61 278 59 l20 47 -48 217 c-50
229 -71 281 -121 312 -55 34 -99 33 -230 -6z"/>
<path d="M3282 4000 c-43 -10 -98 -63 -113 -108 -18 -55 -5 -110 47 -201 45
-79 47 -85 33 -110 -14 -26 -17 -26 -138 -29 -115 -2 -123 -1 -116 15 25 64
13 130 -33 185 -46 55 -119 72 -187 44 -35 -15 -327 -280 -358 -325 -29 -43
-38 -90 -25 -138 9 -38 32 -64 174 -201 173 -166 224 -202 284 -202 57 0 120
39 147 90 27 50 29 87 8 137 -8 19 -15 37 -15 39 0 2 42 4 93 4 195 1 296 31
388 117 97 90 144 230 119 356 -12 64 -70 187 -121 257 -45 61 -115 88 -187
70z"/>
</g>
</svg>
